<mxfile host="app.diagrams.net" modified="2023-08-23T19:28:23.927Z" agent="Mozilla/5.0 (X11; Linux x86_64; rv:109.0) Gecko/20100101 Firefox/116.0" etag="R0Ji4d0lBGBIv7UlDC2A" version="21.6.5" type="github">
  <diagram name="Page-1" id="EdYza92a_eR4Z7SkYFkC">
    <mxGraphModel dx="1215" dy="650" grid="1" gridSize="10" guides="1" tooltips="1" connect="1" arrows="1" fold="1" page="1" pageScale="1" pageWidth="850" pageHeight="1100" math="0" shadow="0">
      <root>
        <mxCell id="0" />
        <mxCell id="1" parent="0" />
        <mxCell id="gUSeSeVJTXjspHKye2mP-1" value="&lt;font style=&quot;font-size: 20px;&quot;&gt;Model&lt;/font&gt;" style="rounded=0;whiteSpace=wrap;html=1;" parent="1" vertex="1">
          <mxGeometry x="520" y="320" width="120" height="60" as="geometry" />
        </mxCell>
        <mxCell id="gUSeSeVJTXjspHKye2mP-2" value="&lt;font style=&quot;font-size: 20px;&quot;&gt;View&lt;/font&gt;" style="rounded=0;whiteSpace=wrap;html=1;" parent="1" vertex="1">
          <mxGeometry x="160" y="320" width="120" height="60" as="geometry" />
        </mxCell>
        <mxCell id="gUSeSeVJTXjspHKye2mP-3" value="&lt;div style=&quot;font-size: 13px;&quot;&gt;&lt;font style=&quot;font-size: 20px;&quot;&gt;ViewModel&lt;/font&gt;&lt;/div&gt;" style="rounded=0;whiteSpace=wrap;html=1;" parent="1" vertex="1">
          <mxGeometry x="340" y="160" width="120" height="60" as="geometry" />
        </mxCell>
        <mxCell id="gUSeSeVJTXjspHKye2mP-4" value="&lt;div style=&quot;font-size: 12px;&quot;&gt;&lt;font style=&quot;font-size: 16px;&quot;&gt;Aktualisiert&lt;/font&gt;&lt;/div&gt;" style="endArrow=classic;html=1;rounded=0;entryX=0.175;entryY=1.017;entryDx=0;entryDy=0;entryPerimeter=0;exitX=0.83;exitY=0.007;exitDx=0;exitDy=0;exitPerimeter=0;" parent="1" source="gUSeSeVJTXjspHKye2mP-2" target="gUSeSeVJTXjspHKye2mP-3" edge="1">
          <mxGeometry x="0.01" width="50" height="50" relative="1" as="geometry">
            <mxPoint x="410" y="400" as="sourcePoint" />
            <mxPoint x="450" y="320" as="targetPoint" />
            <Array as="points" />
            <mxPoint as="offset" />
          </mxGeometry>
        </mxCell>
        <mxCell id="gUSeSeVJTXjspHKye2mP-5" value="&lt;div style=&quot;font-size: 12px;&quot;&gt;&lt;font style=&quot;font-size: 16px;&quot;&gt;Aktualisiert&lt;/font&gt;&lt;/div&gt;" style="endArrow=classic;html=1;rounded=0;entryX=0;entryY=0;entryDx=0;entryDy=0;" parent="1" target="gUSeSeVJTXjspHKye2mP-1" edge="1">
          <mxGeometry x="-0.2868" y="-21" width="50" height="50" relative="1" as="geometry">
            <mxPoint x="420" y="220" as="sourcePoint" />
            <mxPoint x="450" y="320" as="targetPoint" />
            <mxPoint as="offset" />
          </mxGeometry>
        </mxCell>
        <mxCell id="gUSeSeVJTXjspHKye2mP-6" value="&lt;div style=&quot;font-size: 12px;&quot;&gt;&lt;font style=&quot;font-size: 16px;&quot;&gt;Nutzeraktion&lt;/font&gt;&lt;/div&gt;" style="endArrow=classic;html=1;rounded=0;entryX=1;entryY=1;entryDx=0;entryDy=0;exitX=0.334;exitY=0.003;exitDx=0;exitDy=0;exitPerimeter=0;" parent="1" source="gUSeSeVJTXjspHKye2mP-1" target="gUSeSeVJTXjspHKye2mP-3" edge="1">
          <mxGeometry x="-0.2821" y="-21" width="50" height="50" relative="1" as="geometry">
            <mxPoint x="400" y="370" as="sourcePoint" />
            <mxPoint x="450" y="320" as="targetPoint" />
            <mxPoint as="offset" />
          </mxGeometry>
        </mxCell>
      </root>
    </mxGraphModel>
  </diagram>
</mxfile>
